# xmcd
#
# Track frame offsets:
#	150
#	19245
#	43837
#	64220
#	85275
#	115787
#	135327
#	159332
#
# Disc length: 2369 seconds
#
# Revision: 1
# Processed by: cddbd v1.5.1PL0 Copyright (c) Steve Scherf et al.
# Submitted via: CDex 1.50Beta5
#
DISCID=62093f08
DTITLE=小椋佳 - 消すことのできない季節-雨の中の青春II- Disc 2
DYEAR=1988
DGENRE=Pop
TTITLE0=六月の雨
TTITLE1=少しは私に愛を下さい
TTITLE2=あいつは死んだ
TTITLE3=雨だれの唄
TTITLE4=屋根のない車
TTITLE5=小さな街のプラタナス
TTITLE6=この空の青さは
TTITLE7=さらば青春
EXTD=
EXTT0=
EXTT1=
EXTT2=
EXTT3=
EXTT4=
EXTT5=
EXTT6=
EXTT7=
PLAYORDER=
